<svg width="38" height="38" viewBox="0 0 38 38" fill="none" xmlns="http://www.w3.org/2000/svg">
<g clip-path="url(#clip0_1708_2822)">
<path fill-rule="evenodd" clip-rule="evenodd" d="M36.1201 2.08624C36.9761 3.21721 37.3618 5.09194 37.5517 7.37108C37.8028 10.7722 37.9038 14.8536 38.0002 19.071C37.8754 23.3669 37.8245 27.6994 37.5517 30.7709C37.3364 33.1285 36.8789 34.7072 36.1149 35.6648C35.1431 36.6208 33.2787 37.4281 30.6204 37.6195C27.3873 37.8953 23.3984 37.8923 18.9976 38.0007C14.1056 37.917 10.788 37.9529 7.30743 37.621C4.59235 37.4326 2.81618 36.635 1.72326 35.6722C0.91367 34.5854 0.676698 33.4297 0.452434 30.7208C0.172104 27.5925 0.110058 23.3534 0.00390625 19.0941C0.163134 14.8573 0.172852 10.5868 0.454677 7.395C0.643806 4.87666 0.942077 3.18357 1.70682 2.10717C2.77955 1.19298 4.60954 0.738494 7.33958 0.514243C11.0773 0.0769549 14.969 -0.00900779 18.9923 0.000709732C23.133 0.00743725 27.1077 0.125542 30.6541 0.474626C33.0462 0.665986 35.0257 1.07786 36.1164 2.08624H36.1201Z" fill="#015B90"/>
<path d="M17.6476 20.3527C19.3889 22.0929 21.4063 23.7583 22.2038 22.9608C23.3445 21.8201 24.0485 20.8257 26.5653 22.8486C29.081 24.8704 27.1483 26.219 26.0428 27.3234C24.7668 28.5994 20.0104 27.3916 15.309 22.6913C10.6087 17.9899 9.40417 13.2335 10.6813 11.9575C11.7868 10.8509 13.1288 8.9193 15.1506 11.435C17.1735 13.9507 16.1802 14.6547 15.0373 15.7965C14.2431 16.594 15.9074 18.6114 17.6476 20.3527Z" fill="white"/>
</g>
<defs>
<clipPath id="clip0_1708_2822">
<rect width="38" height="38" fill="white"/>
</clipPath>
</defs>
</svg>
