<svg width="38" height="38" viewBox="0 0 38 38" fill="none" xmlns="http://www.w3.org/2000/svg">
<g clip-path="url(#clip0_1708_2819)">
<path fill-rule="evenodd" clip-rule="evenodd" d="M36.1201 2.08624C36.9761 3.21721 37.3618 5.09194 37.5517 7.37108C37.8028 10.7722 37.9038 14.8536 38.0002 19.071C37.8754 23.3669 37.8245 27.6994 37.5517 30.7709C37.3364 33.1285 36.8789 34.7072 36.1149 35.6648C35.1431 36.6208 33.2787 37.4281 30.6204 37.6195C27.3873 37.8953 23.3984 37.8923 18.9976 38.0007C14.1056 37.917 10.788 37.9529 7.30743 37.621C4.59235 37.4326 2.81618 36.635 1.72326 35.6722C0.91367 34.5854 0.676698 33.4297 0.452434 30.7208C0.172104 27.5925 0.110058 23.3534 0.00390625 19.0941C0.163134 14.8573 0.172852 10.5868 0.454677 7.395C0.643806 4.87666 0.942077 3.18357 1.70682 2.10717C2.77955 1.19298 4.60954 0.738494 7.33958 0.514243C11.0773 0.0769549 14.969 -0.00900779 18.9923 0.000709732C23.133 0.00743725 27.1077 0.125542 30.6541 0.474626C33.0462 0.665986 35.0257 1.07786 36.1164 2.08624H36.1201Z" fill="#2CA3DB"/>
<path d="M28.1899 9.23969L8.41877 16.8642C7.06945 17.4054 7.07768 18.1581 8.17283 18.4938L13.1066 20.0329L14.9934 25.817C15.2229 26.4502 15.1101 26.7013 15.7746 26.7013C16.2874 26.7013 16.5154 26.4674 16.801 26.1885C16.9827 26.0106 18.0614 24.9619 19.2679 23.7905L24.3968 27.5804C25.341 28.1036 26.022 27.8315 26.2575 26.7036L29.6214 10.8386C29.9645 9.45721 29.0929 8.83304 28.1899 9.23969ZM13.8774 19.68L24.9919 12.6685C25.5465 12.3321 26.0556 12.513 25.6377 12.8838L16.1215 21.4696L15.7477 25.4216L13.8774 19.68Z" fill="white"/>
</g>
<defs>
<clipPath id="clip0_1708_2819">
<rect width="38" height="38" fill="white"/>
</clipPath>
</defs>
</svg>
