<svg width="38" height="38" viewBox="0 0 38 38" fill="none" xmlns="http://www.w3.org/2000/svg">
<g clip-path="url(#clip0_1708_2816)">
<path fill-rule="evenodd" clip-rule="evenodd" d="M36.1201 2.08624C36.9761 3.21721 37.3618 5.09194 37.5517 7.37108C37.8028 10.7722 37.9038 14.8536 38.0002 19.071C37.8754 23.3669 37.8245 27.6994 37.5517 30.7709C37.3364 33.1285 36.8789 34.7072 36.1149 35.6648C35.1431 36.6208 33.2787 37.4281 30.6204 37.6195C27.3873 37.8953 23.3984 37.8923 18.9976 38.0007C14.1056 37.917 10.788 37.9529 7.30743 37.621C4.59235 37.4326 2.81618 36.635 1.72326 35.6722C0.91367 34.5854 0.676698 33.4297 0.452434 30.7208C0.172104 27.5925 0.110058 23.3534 0.00390625 19.0941C0.163134 14.8573 0.172852 10.5868 0.454677 7.395C0.643806 4.87666 0.942077 3.18357 1.70682 2.10717C2.77955 1.19298 4.60954 0.738494 7.33958 0.514243C11.0773 0.0769549 14.969 -0.00900779 18.9923 0.000709732C23.133 0.00743725 27.1077 0.125542 30.6541 0.474626C33.0462 0.665986 35.0257 1.07786 36.1164 2.08624H36.1201Z" fill="#675CA8"/>
<path d="M18.514 7.26367C16.2962 7.26367 14.1283 7.92128 12.2843 9.15332C10.4403 10.3854 9.00304 12.1365 8.15434 14.1854C7.30564 16.2342 7.08358 18.4886 7.51624 20.6637C7.94891 22.8387 9.01686 24.8366 10.585 26.4047C12.1532 27.9728 14.1512 29.0406 16.3264 29.4733C18.5015 29.9059 20.7561 29.6839 22.8051 28.8352C24.854 27.9866 26.6053 26.5494 27.8374 24.7056C29.0695 22.8617 29.7271 20.6938 29.7271 18.4762C29.7271 17.0038 29.4371 15.5457 28.8736 14.1854C28.3101 12.825 27.4841 11.5889 26.4429 10.5477C25.4016 9.50657 24.1655 8.68066 22.8051 8.11717C21.4446 7.55369 19.9865 7.26367 18.514 7.26367ZM18.3802 12.0753C18.3949 12.024 18.4205 11.9764 18.4552 11.9358C18.4899 11.8952 18.5328 11.8625 18.5812 11.8399C18.6566 11.8089 18.7374 11.7931 18.819 11.7935C18.819 11.7935 18.9184 11.7868 19.0058 11.7898C21.9706 11.869 24.531 13.974 24.9002 17.1621C24.9463 17.4881 24.973 17.8166 24.9802 18.1458C24.9802 18.2497 24.9847 18.4381 24.8569 18.5599C24.809 18.6043 24.7506 18.6357 24.6872 18.6511C24.5949 18.6332 24.5103 18.5872 24.445 18.5196C24.3716 18.4305 24.3314 18.3188 24.3314 18.2034C24.3004 17.6241 24.2181 17.0488 24.0854 16.4841C23.5928 14.3911 21.6933 12.7406 19.5531 12.5014C19.3041 12.4738 19.0552 12.4461 18.8055 12.4349C18.6358 12.4274 18.4676 12.396 18.4011 12.2854C18.3678 12.2205 18.3603 12.1455 18.3802 12.0753ZM19.5448 14.0458C19.4517 14.0419 19.3592 14.0281 19.269 14.0046C19.1501 13.9732 19.0574 13.9478 18.9872 13.8664C18.9313 13.7976 18.9005 13.712 18.8997 13.6234C18.9187 13.5469 18.961 13.4782 19.0208 13.4268C19.1078 13.3659 19.2143 13.3392 19.3198 13.3521C21.0676 13.4395 22.1022 14.4509 22.1022 14.4509C22.4177 14.767 22.6845 15.1283 22.8938 15.5228C23.1969 16.0905 23.3818 16.7138 23.4373 17.3549C23.4512 17.4855 23.4308 17.6174 23.3782 17.7377C23.3523 17.8079 23.3072 17.8695 23.2482 17.9156C23.1825 17.9614 23.1039 17.985 23.0239 17.9829C22.9675 17.9619 22.9164 17.9287 22.8744 17.8857C22.827 17.8398 22.7936 17.7815 22.778 17.7175C22.686 16.9154 22.5604 16.132 22.067 15.4548C21.4399 14.5974 20.5533 14.2154 19.5448 14.0458ZM21.8301 17.0933C21.8129 17.3258 21.7187 17.4118 21.6948 17.4319C21.6373 17.4784 21.5673 17.5067 21.4937 17.5134C21.4171 17.5003 21.3461 17.465 21.2896 17.4118C21.2212 17.3369 21.1806 17.2409 21.1745 17.1397C21.1513 16.9386 21.007 16.295 20.6781 15.9982C20.4725 15.8129 20.1877 15.7149 19.7721 15.6544C19.6054 15.6305 19.4432 15.5961 19.3849 15.4854C19.3559 15.4188 19.354 15.3434 19.3796 15.2754C19.4476 15.0549 19.7153 14.9913 19.7362 14.9869C19.9134 15.0115 21.0474 15.1864 21.5662 16.0334C21.7573 16.3527 21.8491 16.7217 21.8301 17.0933ZM24.9533 23.3387C24.528 23.8567 24.1168 24.4024 23.613 24.8337C23.1801 25.2075 22.615 25.2508 22.0521 25.0206C17.43 23.1354 14.1102 19.9256 12.1972 15.2926C12.1494 15.1767 12.1105 15.0564 12.0694 14.9375C11.7113 13.8978 11.8189 13.4941 12.6726 12.7944C12.954 12.5675 13.2478 12.3564 13.5525 12.1621C14.0616 11.8317 14.6207 11.8354 15.0057 12.2988C15.6529 13.0661 16.2457 13.8776 16.7797 14.7275C17.1714 15.3629 17.0316 15.7232 16.4567 16.2016C16.3237 16.3122 16.1816 16.4116 16.0486 16.5215C15.7159 16.7981 15.5754 17.127 15.7219 17.568C16.3648 19.4838 17.7074 20.6955 19.5777 21.3391C19.7953 21.4139 20.1354 21.2457 20.3731 21.1111C20.551 21.0102 20.6549 20.7808 20.7925 20.6088C21.1663 20.1439 21.7643 19.9473 22.2614 20.262C23.148 20.8249 23.998 21.4498 24.8315 22.0896C25.0101 22.2272 25.0557 22.5381 25.1499 22.7519C25.0722 22.9949 25.0617 23.2071 24.9533 23.3394V23.3387Z" fill="white"/>
</g>
<defs>
<clipPath id="clip0_1708_2816">
<rect width="38" height="38" fill="white"/>
</clipPath>
</defs>
</svg>
