<svg width="38" height="38" viewBox="0 0 38 38" fill="none" xmlns="http://www.w3.org/2000/svg">
<g clip-path="url(#clip0_1708_2812)">
<path fill-rule="evenodd" clip-rule="evenodd" d="M36.1201 2.08624C36.9761 3.21721 37.3618 5.09194 37.5517 7.37108C37.8028 10.7722 37.9038 14.8536 38.0002 19.071C37.8754 23.3669 37.8245 27.6994 37.5517 30.7709C37.3364 33.1285 36.8789 34.7072 36.1149 35.6648C35.1431 36.6208 33.2787 37.4281 30.6204 37.6195C27.3873 37.8953 23.3984 37.8923 18.9976 38.0007C14.1056 37.917 10.788 37.9529 7.30743 37.621C4.59235 37.4326 2.81618 36.635 1.72326 35.6722C0.91367 34.5854 0.676698 33.4297 0.452434 30.7208C0.172104 27.5925 0.110058 23.3534 0.00390625 19.0941C0.163134 14.8573 0.172852 10.5868 0.454677 7.395C0.643806 4.87666 0.942077 3.18357 1.70682 2.10717C2.77955 1.19298 4.60954 0.738494 7.33958 0.514243C11.0773 0.0769549 14.969 -0.00900779 18.9923 0.000709732C23.133 0.00743725 27.1077 0.125542 30.6541 0.474626C33.0462 0.665986 35.0257 1.07786 36.1164 2.08624H36.1201Z" fill="#25D366"/>
<path d="M26.3902 10.529C25.3599 9.492 24.1341 8.66979 22.7838 8.10996C21.4335 7.55013 19.9855 7.26382 18.5237 7.26762C12.3939 7.26762 7.40549 12.2557 7.40324 18.3867C7.4008 20.3381 7.91288 22.2556 8.88787 23.9459L7.31055 29.7084L13.2057 28.1618C14.8362 29.05 16.6633 29.5154 18.52 29.5155H18.5245C24.6544 29.5155 29.642 24.5267 29.645 18.3957C29.6495 16.9344 29.3641 15.4867 28.8054 14.1364C28.2467 12.7861 27.4258 11.56 26.3902 10.529ZM18.5237 27.6371H18.52C16.8648 27.6373 15.2399 27.1925 13.8157 26.3491L13.4785 26.1488L9.98003 27.0667L10.9137 23.6559L10.6939 23.306C9.93197 22.0929 9.46243 20.7192 9.32237 19.2935C9.18231 17.8677 9.37557 16.429 9.88689 15.0907C10.3982 13.7525 11.2136 12.5514 12.2687 11.5823C13.3238 10.6132 14.5897 9.90253 15.9665 9.50647C17.3434 9.11041 18.7934 9.03977 20.2022 9.30012C21.611 9.56047 22.9401 10.1447 24.0844 11.0067C25.2287 11.8686 26.157 12.9848 26.796 14.267C27.435 15.5492 27.7672 16.9623 27.7664 18.3949C27.7649 23.4914 23.6183 27.6371 18.5237 27.6371Z" fill="white"/>
<path d="M23.5933 20.7197C23.3152 20.5806 21.9487 19.9086 21.6945 19.8159C21.4404 19.7232 21.2542 19.6769 21.0696 19.955C20.885 20.233 20.352 20.8587 20.1897 21.0441C20.0275 21.2295 19.8653 21.2526 19.588 21.1136C19.3106 20.9746 18.4151 20.6815 17.3535 19.7345C16.5275 18.9974 15.9698 18.09 15.8076 17.8096C15.6454 17.5293 15.7904 17.3813 15.9295 17.2423C16.0543 17.1175 16.2076 16.9179 16.3466 16.7557C16.4609 16.6152 16.5546 16.4592 16.6247 16.2922C16.6616 16.2156 16.6788 16.1309 16.6748 16.046C16.6707 15.961 16.6456 15.8784 16.6015 15.8056C16.532 15.6666 15.9766 14.2986 15.7448 13.7425C15.5206 13.2005 15.2903 13.2745 15.1199 13.2656C14.9494 13.2566 14.7723 13.2559 14.5876 13.2559C14.4468 13.2596 14.3084 13.2924 14.1809 13.3522C14.0534 13.412 13.9396 13.4976 13.8468 13.6034C13.5919 13.8815 12.875 14.5535 12.875 15.9207C12.875 17.2879 13.8707 18.6117 14.0098 18.7948C14.1488 18.978 15.9691 21.7849 18.7567 22.9898C19.274 23.2128 19.8028 23.4081 20.3407 23.5751C20.9076 23.7474 21.5068 23.785 22.0907 23.685C22.6245 23.605 23.7353 23.0123 23.9663 22.3642C24.1973 21.7161 24.1981 21.1585 24.1286 21.0426C24.059 20.9267 23.8707 20.855 23.5933 20.7197Z" fill="white"/>
</g>
<defs>
<clipPath id="clip0_1708_2812">
<rect width="38" height="38" fill="white"/>
</clipPath>
</defs>
</svg>
