<svg width="31" height="30" viewBox="0 0 31 30" fill="none" xmlns="http://www.w3.org/2000/svg">
<path d="M20.4837 8.07471H6.11711C5.87336 8.07471 5.67578 8.27228 5.67578 8.51603C5.67578 8.75978 5.87336 8.95736 6.11711 8.95736H20.4837C20.7275 8.95736 20.925 8.75978 20.925 8.51603C20.925 8.27228 20.7274 8.07471 20.4837 8.07471Z" fill="#2E71F0"/>
<path d="M6.11711 5.89584H13.3003C13.5441 5.89584 13.7417 5.69826 13.7417 5.45451C13.7417 5.21076 13.5441 5.01318 13.3003 5.01318H6.11711C5.87336 5.01318 5.67578 5.21076 5.67578 5.45451C5.67578 5.69832 5.87336 5.89584 6.11711 5.89584Z" fill="#2E71F0"/>
<path d="M20.4837 10.7866H6.11711C5.87336 10.7866 5.67578 10.9842 5.67578 11.228C5.67578 11.4717 5.87336 11.6693 6.11711 11.6693H20.4837C20.7275 11.6693 20.925 11.4717 20.925 11.228C20.925 10.9842 20.7274 10.7866 20.4837 10.7866Z" fill="#2E71F0"/>
<path d="M9.38797 26.9337H4.79029C4.03566 26.9337 3.42166 26.3197 3.42166 25.5651V2.25123C3.42166 1.4966 4.03566 0.882598 4.79029 0.882598H18.0358C18.0785 0.882598 18.1207 0.886523 18.1623 0.892148V3.64453C18.1623 4.8859 19.1722 5.89576 20.4135 5.89576H23.1659C23.1716 5.93748 23.1754 5.97961 23.1754 6.02238V13.5377C23.1754 13.7814 23.373 13.979 23.6168 13.979C23.8605 13.979 24.0581 13.7814 24.0581 13.5377V6.02244C24.0581 5.53834 23.8695 5.08318 23.5272 4.74082L19.3173 0.530859C18.975 0.188555 18.5199 0 18.0358 0H4.79029C3.54893 0 2.53906 1.00992 2.53906 2.25123V25.5651C2.53906 26.8064 3.54898 27.8163 4.79029 27.8163H9.38797C9.63172 27.8163 9.82929 27.6187 9.82929 27.3749C9.82929 27.1312 9.63172 26.9337 9.38797 26.9337ZM22.5513 5.01316H20.4136C19.659 5.01316 19.045 4.39916 19.045 3.64453V1.5068L22.5513 5.01316Z" fill="#2E71F0"/>
<path d="M29.0349 21.6051L25.2956 15.2934C25.023 14.8332 24.43 14.6811 23.9695 14.9538L23.06 15.4927C22.354 15.911 22.0556 16.7573 22.298 17.5074C21.9915 17.6184 21.6555 17.6167 21.3462 17.4971C20.628 17.2712 20.0821 16.8166 19.1804 17.0447C17.6493 17.4345 17.6958 17.415 17.5573 17.4625C16.6608 16.9521 16.122 16.8002 15.1703 17.1683L14.3219 17.4963C13.9292 17.648 13.4964 17.6121 13.1335 17.397L12.902 17.2605C13.015 16.5837 12.7148 15.8694 12.0792 15.4928C12.0792 15.4928 12.0792 15.4928 12.0791 15.4928L11.1696 14.9539C10.7105 14.682 10.1156 14.8342 9.84363 15.2934L6.10417 21.6052C5.83165 22.0652 5.98329 22.6585 6.44361 22.9311L7.3531 23.47C7.62831 23.633 7.93078 23.7106 8.2296 23.7106C8.56283 23.7106 8.89136 23.614 9.17226 23.4321L9.36181 23.544L8.96162 24.1014C8.48472 24.7657 8.63624 25.6895 9.3007 26.1665C9.60796 26.387 9.99398 26.4877 10.3932 26.425C10.4565 26.7953 10.6594 27.1418 10.9878 27.3777C11.2963 27.5992 11.6806 27.7 12.0805 27.637C12.144 28.007 12.3468 28.3532 12.6751 28.589C13.1163 28.9057 13.6648 28.9423 14.1219 28.747C14.2219 29.0068 14.3958 29.2415 14.6383 29.4156C15.2716 29.8701 16.1439 29.7516 16.636 29.1627L17.6995 29.7927C18.4028 30.2095 19.3102 29.9779 19.7272 29.2737C19.8339 29.0937 19.9 28.8976 19.9242 28.6959L19.9266 28.6974C20.6289 29.1133 21.5384 28.8805 21.9544 28.1784C22.0748 27.975 22.1409 27.7544 22.1569 27.5333C22.7759 27.689 23.4505 27.429 23.7921 26.8524C23.9042 26.6633 23.9692 26.459 23.9906 26.2533C24.654 26.5137 25.4293 26.2621 25.804 25.6297C26.0055 25.2896 26.0625 24.8914 25.9645 24.5084C25.9084 24.2892 25.8053 24.0903 25.6637 23.9223L26.2499 23.5798C26.7458 23.7834 27.3117 23.7508 27.7859 23.4699L28.6953 22.9311C29.1556 22.6586 29.3077 22.0655 29.0349 21.6051ZM7.80298 22.7106L6.89349 22.1718C6.85306 22.1478 6.83964 22.0954 6.86355 22.055L10.603 15.7431C10.6271 15.7025 10.6796 15.6893 10.7198 15.7132L11.6293 16.252C12.0334 16.4914 12.1598 17.0098 11.9248 17.4065L8.95751 22.4151C8.72068 22.8149 8.20283 22.9474 7.80298 22.7106ZM9.81539 25.4494C9.54738 25.257 9.48609 24.8842 9.67863 24.6161L10.2668 23.7967C10.4542 23.5357 10.8277 23.4643 11.1002 23.6599C11.3677 23.8519 11.429 24.2257 11.237 24.4932L10.6488 25.3126C10.4568 25.5802 10.0827 25.6413 9.81539 25.4494ZM11.5026 26.6607C11.2351 26.4687 11.1738 26.0948 11.3658 25.8274L11.954 25.0081C11.954 25.0081 11.954 25.0081 11.954 25.008C11.954 25.008 11.954 25.0079 11.9541 25.0079L12.6032 24.1037C12.6963 23.9742 12.8341 23.8885 12.9915 23.8627C13.0242 23.8573 13.057 23.8547 13.0895 23.8547C13.2134 23.8547 13.3339 23.8932 13.4365 23.9669C13.566 24.0599 13.6517 24.1978 13.6775 24.3551C13.7033 24.5126 13.6663 24.6706 13.5733 24.8002L12.3359 26.5239C12.1435 26.7919 11.7707 26.8533 11.5026 26.6607ZM13.1898 27.8719C12.9224 27.68 12.861 27.3064 13.0527 27.039C13.0527 27.0389 13.0529 27.0387 13.0529 27.0386L14.2904 25.315C14.4823 25.0475 14.8563 24.9861 15.1237 25.1781C15.3912 25.3701 15.4525 25.7439 15.2605 26.0114L14.7107 26.7773C14.7107 26.7773 14.7107 26.7773 14.7107 26.7774L14.0231 27.7351C13.8311 28.0026 13.4573 28.0641 13.1898 27.8719ZM15.153 28.6986C14.8857 28.5066 14.8243 28.1332 15.0158 27.8657L15.4277 27.2921C15.6196 27.0246 15.9936 26.9634 16.261 27.1553C16.5284 27.3472 16.5898 27.7211 16.3978 27.9886L15.9863 28.5617C15.7944 28.8292 15.4204 28.8907 15.153 28.6986ZM25.0448 25.1799C24.8769 25.4633 24.5098 25.5573 24.2263 25.3894C23.7463 25.1051 20.65 23.2707 20.3199 23.0751C20.1101 22.9509 19.8395 23.0201 19.7153 23.2298C19.5911 23.4395 19.6603 23.7102 19.87 23.8344L22.8233 25.5841L22.8233 25.5841C23.1069 25.7521 23.2014 26.118 23.0329 26.4026C22.8649 26.6862 22.4977 26.78 22.2143 26.6122C21.122 25.9651 20.2351 25.4397 19.2594 24.8616C19.0496 24.7374 18.779 24.8066 18.6548 25.0163C18.5306 25.226 18.5998 25.4967 18.8095 25.6209L20.9855 26.9101L20.986 26.9104C21.2697 27.0789 21.3633 27.4446 21.1951 27.7287C21.0271 28.0122 20.66 28.1061 20.3765 27.9382L19.2087 27.2464C19.2086 27.2463 19.2084 27.2463 19.2083 27.2462C19.2081 27.2461 19.208 27.246 19.2079 27.246L18.3557 26.741C18.1459 26.6167 17.8753 26.6859 17.751 26.8957C17.6268 27.1054 17.696 27.3761 17.9057 27.5003L18.7581 28.0054C18.7583 28.0054 18.7584 28.0055 18.7585 28.0056C19.042 28.1735 19.1366 28.5394 18.968 28.824C18.8 29.1076 18.4329 29.2015 18.1494 29.0336L17.155 28.4445C17.5813 27.7867 17.4192 26.9003 16.7757 26.4385C16.5868 26.3029 16.3764 26.2185 16.1611 26.1822C16.3894 25.5718 16.1926 24.8592 15.6384 24.4614C15.3103 24.2257 14.9174 24.1443 14.5466 24.2024C14.4806 23.8166 14.2696 23.4786 13.9513 23.2502C13.3526 22.8205 12.5389 22.9031 12.0364 23.4115C11.9343 23.2321 11.7933 23.0712 11.6149 22.9432C11.1174 22.5861 10.4715 22.5828 9.97892 22.8836L9.77671 22.7642L12.5523 18.0791L12.6844 18.157C13.268 18.5027 13.9802 18.5748 14.6402 18.3196L15.4885 17.9916C15.9739 17.804 16.2417 17.7918 16.7218 18.0183C16.4077 18.3713 16.2211 18.8347 16.2211 19.3342V21.2909C16.2211 21.8106 16.6437 22.2338 17.163 22.2341H17.1643C17.6852 22.2341 18.175 22.0313 18.5435 21.663C18.7583 21.4484 18.9169 21.1924 19.0119 20.9131C19.5817 21.2505 24.2896 24.0383 24.8354 24.3617C24.9727 24.443 25.07 24.5729 25.1096 24.7275C25.1491 24.8819 25.1261 25.0426 25.0448 25.1799ZM28.2456 22.1718L27.3361 22.7106C26.9363 22.9474 26.4184 22.8148 26.1817 22.4152L24.7909 20.0676C24.6666 19.8579 24.3958 19.7887 24.1863 19.9128C23.9766 20.037 23.9073 20.3077 24.0315 20.5174L25.4222 22.865C25.4484 22.9092 25.4769 22.9512 25.5063 22.9922L25.1196 23.2181C25.0414 23.2644 24.9663 23.3153 24.8944 23.3707L18.8989 19.8202C18.6052 19.6464 18.2327 19.8583 18.2327 20.1999C18.2281 20.2263 18.2783 20.6799 17.9195 21.0386C17.7178 21.2402 17.4495 21.3513 17.1642 21.3513C17.164 21.3513 17.1637 21.3513 17.1635 21.3513C17.1305 21.3513 17.1037 21.3241 17.1037 21.2907V19.3339C17.1037 18.8228 17.4554 18.3915 17.931 18.2711L19.3968 17.9002C19.9286 17.7657 20.2293 18.0497 21.0256 18.3193C21.5784 18.5331 22.1796 18.52 22.7131 18.2921L22.9795 18.7417C23.1037 18.9516 23.3745 19.0207 23.5841 18.8965C23.7938 18.7723 23.8631 18.5016 23.7389 18.2919L23.2143 17.4064C22.9769 17.0057 23.1091 16.4894 23.5097 16.2519L24.4192 15.7131C24.459 15.6895 24.5115 15.7016 24.5361 15.7431L28.2755 22.0549C28.2996 22.0956 28.2863 22.1477 28.2456 22.1718Z" fill="#2E71F0"/>
</svg>
