<svg width="31" height="30" viewBox="0 0 31 30" fill="none" xmlns="http://www.w3.org/2000/svg">
<g clip-path="url(#clip0_2276_3744)">
<path d="M28.7554 13.5562L27.9785 10.4487C28.1909 10.4036 28.3502 10.2151 28.3502 9.98937V9.48834C28.3502 8.40049 27.4652 7.51549 26.3774 7.51549H22.8388V6.48201C22.8388 5.9467 22.4033 5.51123 21.868 5.51123H3.83039C3.29508 5.51123 2.85961 5.9467 2.85961 6.48201V14.9998C2.85961 15.2592 3.0699 15.4695 3.32936 15.4695C3.58875 15.4695 3.7991 15.2592 3.7991 14.9998V6.48201C3.7991 6.46478 3.81311 6.45072 3.83039 6.45072H21.868C21.8852 6.45072 21.8992 6.46484 21.8992 6.48201V14.9999C21.8992 15.2593 22.1095 15.4696 22.369 15.4696C22.6284 15.4696 22.8387 15.2594 22.8387 14.9999V14.4674H28.3799C28.3804 14.4674 28.3807 14.4675 28.3811 14.4675C28.3816 14.4675 28.382 14.4675 28.3824 14.4675C29.0643 14.4679 29.6432 14.9155 29.8421 15.5322H28.3815C28.1221 15.5322 27.9117 15.7425 27.9117 16.0019V17.004C27.9117 17.8156 28.572 18.4758 29.3835 18.4758H29.9159V20.5426H28.6877C28.2842 19.3775 27.1767 18.5384 25.8762 18.5384C24.5757 18.5384 23.4682 19.3775 23.0648 20.5426H22.8386V17.0039C22.8386 16.7445 22.6283 16.5342 22.3689 16.5342C22.1095 16.5342 21.8991 16.7445 21.8991 17.0039V20.5425H12.1533C11.7499 19.3774 10.6424 18.5383 9.3419 18.5383C8.04141 18.5383 6.93387 19.3774 6.53045 20.5425H3.83039C3.81311 20.5425 3.7991 20.5283 3.7991 20.5112V19.4777H5.83459C6.09399 19.4777 6.30434 19.2675 6.30434 19.008C6.30434 18.7485 6.09404 18.5383 5.83459 18.5383H3.32971C3.32959 18.5383 3.32953 18.5383 3.32941 18.5383C3.3293 18.5383 3.32924 18.5383 3.32912 18.5383H1.32521C1.06582 18.5383 0.855469 18.7485 0.855469 19.008C0.855469 19.2675 1.06576 19.4777 1.32521 19.4777H2.85967V20.5112C2.85967 21.0465 3.29514 21.4819 3.83045 21.4819H6.36779C6.36768 21.4924 6.36697 21.5028 6.36697 21.5132C6.36697 23.1536 7.70156 24.4882 9.3419 24.4882C10.9822 24.4882 12.3168 23.1536 12.3168 21.5132C12.3168 21.5028 12.3161 21.4924 12.316 21.4819H22.9021C22.902 21.4924 22.9013 21.5028 22.9013 21.5132C22.9013 23.1536 24.2359 24.4882 25.8762 24.4882C27.5166 24.4882 28.8512 23.1536 28.8512 21.5132C28.8512 21.5028 28.8505 21.4924 28.8503 21.4819H30.3857C30.6451 21.4819 30.8554 21.2717 30.8554 21.0122V16.0018C30.8555 14.7648 29.9428 13.737 28.7554 13.5562ZM22.8388 8.45492H26.3774C26.9472 8.45492 27.4108 8.91851 27.4108 9.48834V9.51963H22.8388V8.45492ZM22.8388 13.528V10.4591H27.0127L27.7799 13.528H22.8388ZM9.3419 23.5488C8.21953 23.5488 7.30641 22.6358 7.30641 21.5134C7.30641 20.3909 8.21953 19.4779 9.3419 19.4779C10.4643 19.4779 11.3774 20.3909 11.3774 21.5134C11.3774 22.6358 10.4643 23.5488 9.3419 23.5488ZM25.8764 23.5488C24.754 23.5488 23.8409 22.6358 23.8409 21.5134C23.8409 20.3909 24.754 19.4779 25.8764 19.4779C26.9987 19.4779 27.9118 20.3909 27.9118 21.5134C27.9118 22.6358 26.9987 23.5488 25.8764 23.5488ZM29.916 17.5363H29.3837C29.0901 17.5363 28.8513 17.2975 28.8513 17.0039V16.4715H29.916V17.5363H29.916Z" fill="#2E71F0"/>
<path d="M9.34188 20.543C8.80656 20.543 8.37109 20.9784 8.37109 21.5138C8.37109 22.0491 8.80656 22.4846 9.34188 22.4846C9.87719 22.4846 10.3127 22.0491 10.3127 21.5138C10.3127 20.9784 9.87719 20.543 9.34188 20.543Z" fill="#2E71F0"/>
<path d="M25.877 20.543C25.3417 20.543 24.9062 20.9784 24.9062 21.5138C24.9062 22.0491 25.3417 22.4846 25.877 22.4846C26.4123 22.4846 26.8478 22.0491 26.8478 21.5138C26.8478 20.9784 26.4123 20.543 25.877 20.543Z" fill="#2E71F0"/>
<path d="M20.3672 18.5386H13.3526C13.0932 18.5386 12.8828 18.7489 12.8828 19.0083C12.8828 19.2678 13.0931 19.4781 13.3526 19.4781H20.3672C20.6266 19.4781 20.8369 19.2678 20.8369 19.0083C20.8369 18.7489 20.6266 18.5386 20.3672 18.5386Z" fill="#2E71F0"/>
<path d="M8.34166 16.5337H2.32912C2.06973 16.5337 1.85938 16.744 1.85938 17.0034C1.85938 17.2629 2.06967 17.4732 2.32912 17.4732H8.34166C8.60106 17.4732 8.81141 17.2629 8.81141 17.0034C8.81141 16.744 8.60106 16.5337 8.34166 16.5337Z" fill="#2E71F0"/>
<path d="M12.8492 8.0166C10.38 8.0166 8.37109 10.0255 8.37109 12.4947C8.37109 14.9639 10.38 16.9728 12.8492 16.9728C15.3184 16.9728 17.3273 14.9639 17.3273 12.4947C17.3273 10.0255 15.3184 8.0166 12.8492 8.0166ZM12.8492 16.0333C10.898 16.0333 9.31059 14.4459 9.31059 12.4947C9.31059 10.5436 10.898 8.95615 12.8492 8.95615C14.8004 8.95615 16.3878 10.5436 16.3878 12.4947C16.3878 14.4459 14.8004 16.0333 12.8492 16.0333Z" fill="#2E71F0"/>
<path d="M14.6878 13.6654L13.3223 12.2999V10.4903C13.3223 10.2309 13.112 10.0205 12.8526 10.0205C12.5931 10.0205 12.3828 10.2308 12.3828 10.4903V12.4945C12.3828 12.619 12.4323 12.7384 12.5204 12.8266L14.0235 14.3297C14.1152 14.4214 14.2354 14.4672 14.3556 14.4672C14.4758 14.4672 14.5961 14.4214 14.6877 14.3297C14.8713 14.1462 14.8713 13.8488 14.6878 13.6654Z" fill="#2E71F0"/>
</g>
<defs>
<clipPath id="clip0_2276_3744">
<rect width="30" height="30" fill="white" transform="translate(0.855469)"/>
</clipPath>
</defs>
</svg>
