<svg width="31" height="30" viewBox="0 0 31 30" fill="none" xmlns="http://www.w3.org/2000/svg">
<g clip-path="url(#clip0_2276_3635)">
<path d="M27.3405 5.75253C24.6984 2.78066 20.9046 1.07617 16.9323 1.07617C14.1182 1.07617 11.4064 1.91225 9.0901 3.49392C8.88971 3.6308 8.83814 3.9042 8.97502 4.10465C9.11184 4.30504 9.38523 4.35666 9.58574 4.21972C11.7554 2.73824 14.2957 1.95514 16.9323 1.95514C20.6538 1.95514 24.2081 3.55211 26.6837 6.33654C26.7705 6.43421 26.8911 6.48402 27.0123 6.48402C27.1161 6.48402 27.2204 6.4474 27.3041 6.37298C27.4855 6.21168 27.5018 5.93394 27.3405 5.75253Z" fill="#2E71F0"/>
<path d="M28.4741 7.21145C28.3382 7.01035 28.065 6.95762 27.864 7.09344C27.6629 7.22937 27.6101 7.50254 27.746 7.70363C29.2048 9.86152 29.9758 12.3845 29.9758 15C29.9758 19.7659 27.3769 24.1517 23.1931 26.4456C22.9803 26.5623 22.9024 26.8294 23.0191 27.0422C23.099 27.188 23.2495 27.2705 23.4048 27.2705C23.4762 27.2705 23.5486 27.2531 23.6157 27.2162C28.0809 24.7679 30.8547 20.0869 30.8547 15C30.8547 12.2083 30.0315 9.51518 28.4741 7.21145Z" fill="#2E71F0"/>
<path d="M16.929 7.25C12.6561 7.25 9.17969 10.7262 9.17969 14.9993C9.17969 19.2723 12.6559 22.7485 16.929 22.7485C21.2018 22.7485 24.6782 19.2723 24.6782 14.9993C24.6782 10.7262 21.2018 7.25 16.929 7.25ZM16.929 21.8696C13.1407 21.8696 10.0586 18.7876 10.0586 14.9993C10.0586 11.2109 13.1406 8.12891 16.929 8.12891C20.7172 8.12891 23.7993 11.2109 23.7993 14.9993C23.7993 18.7876 20.7172 21.8696 16.929 21.8696Z" fill="#2E71F0"/>
<path d="M16.9308 12.2446C15.4116 12.2446 14.1758 13.4805 14.1758 14.9996C14.1758 16.5188 15.4117 17.7547 16.9308 17.7547C18.4499 17.7547 19.6858 16.5188 19.6858 14.9996C19.6858 13.4805 18.45 12.2446 16.9308 12.2446ZM16.9308 16.8759C15.8963 16.8759 15.0547 16.0343 15.0547 14.9998C15.0547 13.9652 15.8963 13.1237 16.9308 13.1237C17.9653 13.1237 18.8069 13.9652 18.8069 14.9998C18.8069 16.0343 17.9653 16.8759 16.9308 16.8759Z" fill="#2E71F0"/>
<path d="M22.0955 27.4668C22.0099 27.2396 21.7564 27.1248 21.5293 27.2104C20.06 27.7639 18.5133 28.0445 16.932 28.0445C12.9516 28.0445 9.1916 26.2179 6.72398 23.1219H7.43643C7.67912 23.1219 7.87588 22.9252 7.87588 22.6824V20.7149C7.87588 20.6349 7.85402 20.5564 7.81272 20.4879C6.81621 18.8363 6.28951 16.9386 6.28951 14.9999C6.28951 13.0613 6.81621 11.1636 7.81272 9.51197C7.85402 9.44348 7.87588 9.36496 7.87588 9.28498V7.31746C7.87588 7.0747 7.67912 6.87801 7.43643 6.87801H6.72522C7.17943 6.30818 7.68111 5.77539 8.22369 5.28853C8.40434 5.1264 8.41939 4.84861 8.25727 4.66797C8.0952 4.48726 7.81734 4.47226 7.6367 4.63439C6.88729 5.30687 6.21135 6.06156 5.62383 6.87801H3.30938C3.15094 6.87801 3.0048 6.96326 2.92688 7.10119C1.57172 9.4975 0.855469 12.2288 0.855469 14.9999C0.855469 17.771 1.57172 20.5023 2.92688 22.8988C3.00486 23.0366 3.151 23.122 3.30938 23.122H5.62324C8.23857 26.7569 12.454 28.9236 16.9319 28.9236C18.6195 28.9236 20.2705 28.624 21.8391 28.033C22.0662 27.9474 22.181 27.6939 22.0955 27.4668ZM3.56824 22.2431C2.36777 20.0326 1.73438 17.534 1.73438 14.9999C1.73438 12.4659 2.36777 9.96724 3.56824 7.75685H6.99697V9.16398C5.95881 10.9275 5.41061 12.9426 5.41061 15C5.41061 17.0574 5.95881 19.0725 6.99697 20.8361V22.2432H3.56824V22.2431Z" fill="#2E71F0"/>
<path d="M3.79693 14.9993C3.79693 13.9507 3.90422 12.9034 4.1158 11.8865C4.16525 11.6489 4.01267 11.4162 3.77508 11.3667C3.53754 11.3172 3.30475 11.4698 3.25529 11.7074C3.03146 12.7831 2.91797 13.8907 2.91797 14.9993C2.91797 16.1071 3.03129 17.214 3.25488 18.2892C3.29801 18.4967 3.48082 18.6393 3.68467 18.6393C3.71432 18.6393 3.74443 18.6364 3.77467 18.63C4.01226 18.5806 4.16484 18.348 4.11545 18.1103C3.9041 17.0939 3.79693 16.0472 3.79693 14.9993Z" fill="#2E71F0"/>
<path d="M16.9303 8.91797C16.2256 8.91797 15.6523 9.49125 15.6523 10.196C15.6523 10.9007 16.2257 11.4739 16.9303 11.4739C17.635 11.4739 18.2083 10.9007 18.2083 10.196C18.2083 9.49125 17.635 8.91797 16.9303 8.91797ZM16.9303 10.5951C16.7103 10.5951 16.5312 10.416 16.5312 10.196C16.5312 9.976 16.7103 9.79693 16.9303 9.79693C17.1504 9.79693 17.3294 9.976 17.3294 10.196C17.3294 10.416 17.1504 10.5951 16.9303 10.5951Z" fill="#2E71F0"/>
<path d="M16.9303 18.5762C16.2256 18.5762 15.6523 19.1495 15.6523 19.8542C15.6523 20.5588 16.2257 21.1321 16.9303 21.1321C17.635 21.1321 18.2083 20.5587 18.2083 19.8542C18.2083 19.1495 17.635 18.5762 16.9303 18.5762ZM16.9303 20.2532C16.7103 20.2532 16.5312 20.0742 16.5312 19.8542C16.5312 19.6341 16.7103 19.4551 16.9303 19.4551C17.1504 19.4551 17.3294 19.6341 17.3294 19.8542C17.3294 20.0742 17.1504 20.2532 16.9303 20.2532Z" fill="#2E71F0"/>
<path d="M21.7663 13.7471C21.0616 13.7471 20.4883 14.3204 20.4883 15.025C20.4883 15.7297 21.0616 16.303 21.7663 16.303C22.471 16.303 23.0443 15.7297 23.0443 15.025C23.0443 14.3204 22.4709 13.7471 21.7663 13.7471ZM21.7663 15.4241C21.5462 15.4241 21.3672 15.2451 21.3672 15.0251C21.3672 14.8051 21.5462 14.626 21.7663 14.626C21.9863 14.626 22.1653 14.805 22.1653 15.0251C22.1653 15.2451 21.9863 15.4241 21.7663 15.4241Z" fill="#2E71F0"/>
<path d="M12.1022 13.7471C11.3975 13.7471 10.8242 14.3204 10.8242 15.025C10.8242 15.7297 11.3976 16.303 12.1022 16.303C12.8069 16.303 13.3801 15.7297 13.3801 15.025C13.3801 14.3204 12.8069 13.7471 12.1022 13.7471ZM12.1022 15.4241C11.8821 15.4241 11.7031 15.2451 11.7031 15.0251C11.7031 14.8051 11.8822 14.626 12.1022 14.626C12.3222 14.626 12.5012 14.805 12.5012 15.0251C12.5012 15.2451 12.3222 15.4241 12.1022 15.4241Z" fill="#2E71F0"/>
<path d="M21.2513 10.7059C21.0099 10.4645 20.689 10.3315 20.3476 10.3315C20.0063 10.3315 19.6854 10.4645 19.444 10.7059C18.9458 11.2042 18.9458 12.0149 19.444 12.5132C19.6931 12.7623 20.0204 12.8869 20.3476 12.8869C20.6749 12.8869 21.0021 12.7623 21.2512 12.5132C21.7495 12.0149 21.7495 11.2041 21.2513 10.7059ZM20.6298 11.8917C20.4742 12.0473 20.2211 12.0473 20.0655 11.8917C19.9099 11.7361 19.9099 11.4829 20.0655 11.3273C20.1408 11.2519 20.241 11.2104 20.3476 11.2104C20.4542 11.2104 20.5544 11.2519 20.6298 11.3273C20.7854 11.4829 20.7854 11.7361 20.6298 11.8917Z" fill="#2E71F0"/>
<path d="M14.4232 17.5363C13.9249 17.038 13.1142 17.0381 12.6158 17.5363C12.1176 18.0346 12.1176 18.8453 12.6159 19.3437C12.865 19.5927 13.1923 19.7173 13.5195 19.7173C13.8468 19.7173 14.174 19.5927 14.4232 19.3437L14.4232 19.3436C14.9214 18.8453 14.9214 18.0346 14.4232 17.5363ZM13.8017 18.7222C13.6462 18.8778 13.393 18.8778 13.2374 18.7222C13.0818 18.5666 13.0818 18.3134 13.2374 18.1578C13.3152 18.08 13.4174 18.0411 13.5195 18.0411C13.6217 18.0411 13.7239 18.08 13.8017 18.1578C13.9573 18.3134 13.9573 18.5666 13.8017 18.7222Z" fill="#2E71F0"/>
<path d="M21.2513 17.5365C21.0099 17.295 20.689 17.1621 20.3476 17.1621C20.0063 17.1621 19.6854 17.2951 19.444 17.5365C18.9458 18.0347 18.9458 18.8454 19.444 19.3437V19.3438C19.6931 19.5929 20.0204 19.7174 20.3476 19.7174C20.6749 19.7174 21.0021 19.5929 21.2512 19.3438C21.7495 18.8455 21.7495 18.0347 21.2513 17.5365ZM20.6297 18.7223C20.4742 18.878 20.221 18.878 20.0654 18.7223C19.9099 18.5667 19.9099 18.3135 20.0654 18.1579C20.1408 18.0826 20.241 18.0411 20.3476 18.0411C20.4541 18.0411 20.5543 18.0826 20.6297 18.158C20.7853 18.3135 20.7853 18.5667 20.6297 18.7223Z" fill="#2E71F0"/>
<path d="M14.4231 10.7057C13.9248 10.2074 13.1141 10.2075 12.6158 10.7058C12.1176 11.2041 12.1176 12.0148 12.6159 12.5131C12.6159 12.5131 12.6159 12.5131 12.6159 12.5131C12.865 12.7622 13.1922 12.8867 13.5195 12.8867C13.8468 12.8867 14.174 12.7622 14.4232 12.513C14.9213 12.0148 14.9213 11.2041 14.4231 10.7057ZM13.8017 11.8915C13.6461 12.047 13.3929 12.047 13.2374 11.8915C13.0818 11.736 13.0818 11.4828 13.2374 11.3272C13.393 11.1716 13.6462 11.1716 13.8017 11.3272C13.9573 11.4828 13.9573 11.736 13.8017 11.8915Z" fill="#2E71F0"/>
<path d="M23.6876 8.246C23.5163 8.07409 23.2381 8.0735 23.0662 8.24483L23.059 8.25186C22.887 8.42313 22.8865 8.70134 23.0578 8.87337C23.1436 8.95956 23.2564 9.00269 23.3692 9.00269C23.4814 9.00269 23.5935 8.95997 23.6792 8.87454L23.6864 8.86751C23.8584 8.69624 23.8589 8.41804 23.6876 8.246Z" fill="#2E71F0"/>
<path d="M24.7724 7.15494C24.6004 6.98367 24.3221 6.98425 24.1509 7.15617L24.1437 7.16331C23.9725 7.33529 23.973 7.61349 24.145 7.78476C24.2307 7.87019 24.3429 7.91291 24.4551 7.91291C24.5679 7.91291 24.6806 7.86978 24.7665 7.78353L24.7736 7.77638C24.9449 7.60441 24.9444 7.32621 24.7724 7.15494Z" fill="#2E71F0"/>
<path d="M9.71819 22.2131C9.54663 22.0416 9.26837 22.0416 9.09674 22.2131L9.08965 22.2202C8.91803 22.3919 8.91803 22.6701 9.08965 22.8417C9.17544 22.9275 9.28794 22.9704 9.40038 22.9704C9.51288 22.9704 9.62532 22.9275 9.7111 22.8417L9.71819 22.8347C9.88981 22.663 9.88981 22.3848 9.71819 22.2131Z" fill="#2E71F0"/>
<path d="M10.8029 21.1221C10.6307 20.9512 10.3524 20.9523 10.1814 21.1245L10.1743 21.1317C10.0034 21.304 10.0045 21.5822 10.1769 21.7531C10.2626 21.8382 10.3744 21.8806 10.4863 21.8806C10.5994 21.8806 10.7125 21.8373 10.7983 21.7507L10.8054 21.7436C10.9763 21.5712 10.9752 21.293 10.8029 21.1221Z" fill="#2E71F0"/>
<path d="M20.4252 6.11052C20.1997 6.02128 19.9443 6.13173 19.855 6.35743L19.8513 6.36675C19.762 6.59239 19.8725 6.8478 20.0982 6.93704C20.1513 6.95802 20.206 6.96798 20.2598 6.96798C20.4348 6.96798 20.6002 6.86268 20.6685 6.69012L20.6722 6.68081C20.7614 6.45516 20.6509 6.19975 20.4252 6.11052Z" fill="#2E71F0"/>
<path d="M20.9869 4.67612C20.761 4.58729 20.5059 4.69838 20.4171 4.9242L20.4134 4.93358C20.3246 5.15946 20.4357 5.41457 20.6615 5.5034C20.7143 5.52415 20.7687 5.53399 20.8222 5.53399C20.9975 5.53399 21.1632 5.42829 21.2313 5.25532L21.235 5.24594C21.3239 5.02006 21.2128 4.76494 20.9869 4.67612Z" fill="#2E71F0"/>
<path d="M13.1979 24.4945C12.9719 24.4057 12.7169 24.5167 12.628 24.7425L12.6244 24.7519C12.5355 24.9778 12.6466 25.2329 12.8724 25.3217C12.9252 25.3425 12.9797 25.3523 13.0332 25.3523C13.2085 25.3523 13.3742 25.2466 13.4423 25.0737L13.446 25.0643C13.5349 24.8384 13.4237 24.5833 13.1979 24.4945Z" fill="#2E71F0"/>
<path d="M13.7643 23.06C13.5385 22.971 13.2833 23.0822 13.1945 23.308L13.1908 23.3174C13.1019 23.5433 13.213 23.7984 13.4389 23.8873C13.4916 23.9081 13.5461 23.9179 13.5996 23.9179C13.7749 23.9179 13.9406 23.8122 14.0087 23.6392L14.0124 23.6298C14.1013 23.4039 13.9901 23.1488 13.7643 23.06Z" fill="#2E71F0"/>
<path d="M16.9277 5.44824C16.685 5.44824 16.4883 5.64494 16.4883 5.8877V5.89777C16.4883 6.14053 16.685 6.33723 16.9277 6.33723C17.1704 6.33723 17.3672 6.14047 17.3672 5.89777V5.8877C17.3672 5.64494 17.1704 5.44824 16.9277 5.44824Z" fill="#2E71F0"/>
<path d="M16.9277 3.90723C16.685 3.90723 16.4883 4.10393 16.4883 4.34668V4.35676C16.4883 4.59951 16.685 4.79621 16.9277 4.79621C17.1705 4.79621 17.3672 4.59945 17.3672 4.35676V4.34668C17.3672 4.10393 17.1704 3.90723 16.9277 3.90723Z" fill="#2E71F0"/>
<path d="M16.9355 25.2017C16.6929 25.2017 16.4961 25.3984 16.4961 25.6411V25.6512C16.4961 25.8939 16.6929 26.0906 16.9355 26.0906C17.1782 26.0906 17.375 25.8939 17.375 25.6512V25.6411C17.375 25.3984 17.1782 25.2017 16.9355 25.2017Z" fill="#2E71F0"/>
<path d="M16.9316 23.6606C16.6889 23.6606 16.4922 23.8573 16.4922 24.1001V24.1102C16.4922 24.3529 16.6889 24.5496 16.9316 24.5496C17.1743 24.5496 17.3711 24.3529 17.3711 24.1102V24.1001C17.3711 23.8573 17.1743 23.6606 16.9316 23.6606Z" fill="#2E71F0"/>
</g>
<defs>
<clipPath id="clip0_2276_3635">
<rect width="30" height="30" fill="white" transform="translate(0.855469)"/>
</clipPath>
</defs>
</svg>
