<svg width="86" height="24" viewBox="0 0 86 24" fill="none" xmlns="http://www.w3.org/2000/svg">
<g clip-path="url(#clip0_1_11)">
<path fill-rule="evenodd" clip-rule="evenodd" d="M3.09107 10.784V10.4106C3.09442 10.39 3.09442 10.369 3.09107 10.3484C3.09445 10.3301 3.09445 10.3113 3.09107 10.293H3.03575H2.97351H2.91127L2.86287 10.3276C2.8597 10.3436 2.8597 10.36 2.86287 10.376C2.85963 10.3966 2.85963 10.4177 2.86287 10.4383V14.9677C2.85914 14.9859 2.85914 15.0047 2.86287 15.023C2.87792 15.0426 2.89672 15.0591 2.91819 15.0714H2.98042H3.04266C3.07527 15.0579 3.10216 15.0334 3.11872 15.0022C3.12878 14.9708 3.12878 14.9369 3.11872 14.9054V14.6081H3.81024V10.8393H3.11872L3.09107 10.784Z" fill="white"/>
<path fill-rule="evenodd" clip-rule="evenodd" d="M17.1841 14.5874V14.9884C17.1832 15.0293 17.1981 15.0689 17.2256 15.0991C17.2558 15.1275 17.2949 15.1446 17.3362 15.1475C17.38 15.1462 17.4218 15.129 17.4538 15.0991C17.4813 15.0689 17.4962 15.0293 17.4953 14.9884V10.5489C17.5023 10.5217 17.5023 10.4931 17.4953 10.4659C17.4982 10.4453 17.4982 10.4243 17.4953 10.4037C17.4818 10.3843 17.4624 10.3698 17.44 10.3622C17.4197 10.3558 17.398 10.3558 17.3777 10.3622C17.3577 10.3548 17.3356 10.3548 17.3155 10.3622C17.2814 10.3726 17.252 10.3946 17.2325 10.4244C17.222 10.4558 17.222 10.4899 17.2325 10.5213V10.7979H16.541V14.5182H17.2325V14.6012L17.1841 14.5874Z" fill="white"/>
<path fill-rule="evenodd" clip-rule="evenodd" d="M3.98312 14.9884H4.86134V10.3553H3.98312V14.9884Z" fill="white"/>
<path fill-rule="evenodd" clip-rule="evenodd" d="M16.1953 10.784H15.3862V14.4975H16.2644V10.8394C16.2635 10.8312 16.2611 10.8232 16.2571 10.816C16.2532 10.8088 16.2478 10.8024 16.2414 10.7972C16.235 10.7921 16.2276 10.7883 16.2196 10.786C16.2117 10.7837 16.2034 10.7831 16.1953 10.784V10.784Z" fill="white"/>
<path fill-rule="evenodd" clip-rule="evenodd" d="M14.4319 10.3553C14.3697 10.3553 14.3489 10.3553 14.3282 10.2861L13.5606 8.2116H12.4611V7.52009H13.5882C13.7058 7.52009 13.7819 7.45784 13.7819 7.36103C13.7878 7.34071 13.7878 7.31912 13.7819 7.2988C13.7743 7.2764 13.7598 7.257 13.7404 7.24346L13.6851 7.2089H6.64545C6.60652 7.2133 6.57009 7.2303 6.54171 7.25731C6.53095 7.28392 6.53095 7.31367 6.54171 7.34029C6.53208 7.36473 6.53208 7.3919 6.54171 7.41634C6.55245 7.44846 6.5746 7.47554 6.60396 7.49242C6.61928 7.49889 6.63573 7.50221 6.65236 7.50221C6.66899 7.50221 6.68545 7.49889 6.70077 7.49242H7.8556V8.18393H6.94279C6.91092 8.17679 6.87786 8.17679 6.84598 8.18393C6.81615 8.19851 6.79011 8.21981 6.76992 8.24617L6.00233 9.19354L5.07571 10.3069C5.0478 10.3449 5.03321 10.3911 5.03422 10.4383V14.9124C5.02785 14.9326 5.02785 14.9543 5.03422 14.9746C5.03422 14.9746 5.03422 14.9746 5.07571 15.023L6.59013 15.9012H15.2202V10.3691L14.4319 10.3553ZM8.5886 14.8294L9.5014 12.4575H8.33274C8.34194 12.3898 8.36301 12.3242 8.39498 12.2639L9.03117 10.6388C9.12107 10.4106 9.20405 10.1755 9.29395 9.94729C9.29395 9.94729 9.29394 9.89197 9.36309 9.89197H11.4376C11.1265 10.6872 10.8222 11.4894 10.511 12.2915H11.6935L8.5886 14.8294Z" fill="white"/>
<path d="M20.0746 3.46782V3.28111H19.8534L19.2448 3.22578H19.0097C17.6049 3.15378 16.2129 2.92178 14.8606 2.53427C14.7752 2.50676 14.6833 2.50676 14.5979 2.53427C14.5119 2.56084 14.4352 2.6112 14.3766 2.6795C13.634 3.41594 12.8158 4.0719 11.9355 4.63648L11.244 5.07213L11.1541 5.12054C10.6677 5.44561 10.1593 5.73672 9.63279 5.99184H13.7819C14.137 5.99139 14.4787 6.12759 14.7362 6.37218C14.9765 6.62066 15.1105 6.9531 15.1096 7.29881C15.1008 7.54426 15.0268 7.78294 14.8952 7.99032C14.9989 8.2531 15.0957 8.50895 15.1856 8.77864H15.2341C15.2963 8.9446 15.4069 9.20739 15.4553 9.33186H17.3362C17.5574 9.31756 17.7755 9.38942 17.9448 9.53238C18.1148 9.67565 18.2237 9.87852 18.2491 10.0994V14.94C18.2226 15.1281 18.1591 15.3091 18.0623 15.4725L17.9725 15.6454C17.8615 15.7487 17.7293 15.8265 17.5852 15.8736C17.4431 15.9224 17.2924 15.9413 17.1426 15.9289H16.5272V17.0699H13.0696C11.761 18.4818 10.1957 19.6317 8.45721 20.4583C8.45721 20.4583 6.38267 21.3711 6.19596 21.4264C6.19368 21.4471 6.19368 21.468 6.19596 21.4887L6.51406 21.7445C7.566 22.5357 8.73176 23.1629 9.97163 23.6047C10.0298 23.6253 10.0933 23.6253 10.1514 23.6047C10.4389 23.5079 10.7205 23.3948 10.9951 23.2659C12.3995 22.6088 13.6941 21.7387 14.833 20.6865L14.9574 20.5966C15.7279 19.8686 16.423 19.0647 17.032 18.1971L17.1357 18.0657C17.3017 17.8237 17.4469 17.5747 17.599 17.3327C17.852 16.9925 18.072 16.6289 18.256 16.247C19.8119 13.3011 20.0401 7.67913 20.0401 7.67913V3.53005L20.0746 3.46782Z" fill="#2E71F0"/>
<path d="M11.4031 17.063H6.87365C6.63109 17.06 6.39321 16.9958 6.18214 16.8763L5.40763 16.4199L4.87517 16.1156H3.43682C3.35399 16.1225 3.27072 16.1225 3.18788 16.1156C2.99595 16.1139 2.80688 16.0689 2.63467 15.9842C2.4624 15.8954 2.31142 15.7704 2.1921 15.6177L2.06071 15.5001C1.99837 15.3961 1.94958 15.2846 1.9155 15.1682C1.90889 15.1015 1.90889 15.0344 1.9155 14.9677V10.1271C1.92924 9.98193 1.97154 9.84092 2.03996 9.71217V9.71217L2.12294 9.58078L2.16444 9.53237C2.19326 9.48846 2.22818 9.44889 2.26816 9.41483L2.33732 9.34567V9.30418C2.37816 9.26808 2.42212 9.23569 2.4687 9.20738L2.60701 9.1313L2.75222 9.07599L2.91127 9.0414H3.26395C3.46714 9.05498 3.66512 9.11156 3.84482 9.20738H4.66772L4.9789 8.82011L5.29008 8.44671L5.71882 7.92116C5.6894 7.87741 5.66394 7.83112 5.64276 7.78284C5.53252 7.53423 5.50392 7.25708 5.56108 6.99119C5.61823 6.72531 5.75818 6.48437 5.96085 6.30302C6.15299 6.12815 6.39455 6.01704 6.65236 5.98493H6.81833C8.01162 5.61292 9.16885 5.13382 10.2759 4.55349C11.2246 4.05279 12.123 3.46229 12.959 2.79011C13.2287 2.56883 13.4776 2.34064 13.7058 2.14701L10.3727 0.515049C10.2941 0.46525 10.203 0.438803 10.1099 0.438803C10.0169 0.438803 9.92576 0.46525 9.84716 0.515049C8.72209 1.14035 7.54985 1.67676 6.34118 2.11937C4.61627 2.74158 2.81195 3.1164 0.981949 3.23269C0.662864 3.22431 0.343635 3.2428 0.0276566 3.288V7.62381C0.0276566 7.62381 0.255857 13.2458 1.81176 16.1917C2.00522 16.5759 2.23689 16.9396 2.50328 17.2773C3.22941 18.4716 4.1133 19.5625 5.13103 20.5205C5.20563 20.5956 5.30279 20.6442 5.40763 20.6588C7.72655 19.8816 9.86958 18.655 11.7142 17.0491L11.4031 17.063Z" fill="#2E71F0"/>
</g>
<path d="M27.5864 16.4821C27.4795 16.5059 27.337 16.5355 27.1589 16.5712C26.9808 16.6068 26.7789 16.6246 26.5533 16.6246C26.1377 16.6246 25.8289 16.5474 25.627 16.393C25.4252 16.2387 25.3242 15.9655 25.3242 15.5737V9.92711C25.3242 9.61836 25.3955 9.35711 25.538 9.14336C25.6805 8.92961 25.8883 8.73961 26.1614 8.57336C26.5295 8.34774 26.9808 8.16367 27.5152 8.02117C28.0614 7.87867 28.6492 7.80742 29.2786 7.80742C30.4067 7.80742 30.9708 8.15774 30.9708 8.85836C30.9708 9.02461 30.9411 9.18492 30.8817 9.3393C30.8342 9.4818 30.7808 9.60055 30.7214 9.69555C30.4483 9.63617 30.1098 9.60649 29.7061 9.60649C29.2905 9.60649 28.8986 9.65399 28.5305 9.74899C28.1623 9.84399 27.8477 9.96274 27.5864 10.1052V16.4821Z" fill="white"/>
<path d="M35.561 15.0571C35.9054 15.0571 36.22 15.0274 36.505 14.968C36.79 14.8968 36.9979 14.8137 37.1285 14.7187V12.7415L35.4007 12.9018C34.9257 12.9493 34.5635 13.0562 34.3141 13.2224C34.0647 13.3768 33.94 13.6262 33.94 13.9705C33.94 14.3149 34.0647 14.5821 34.3141 14.7721C34.5754 14.9621 34.991 15.0571 35.561 15.0571ZM35.4897 7.80742C36.6535 7.80742 37.5797 8.0568 38.2685 8.55555C38.9691 9.0543 39.3194 9.82617 39.3194 10.8712V14.9859C39.3194 15.2709 39.2482 15.4965 39.1057 15.6627C38.9632 15.829 38.785 15.9774 38.5713 16.108C38.2388 16.3099 37.8172 16.4702 37.3066 16.589C36.796 16.7077 36.2141 16.7671 35.561 16.7671C34.3735 16.7671 33.4354 16.5415 32.7466 16.0902C32.0697 15.6271 31.7313 14.9384 31.7313 14.024C31.7313 13.2284 31.9807 12.6227 32.4794 12.2071C32.99 11.7796 33.7263 11.5184 34.6882 11.4234L37.1285 11.174V10.8534C37.1285 10.4021 36.9622 10.0696 36.6297 9.85586C36.3091 9.64211 35.8519 9.53524 35.2582 9.53524C34.795 9.53524 34.3438 9.59461 33.9044 9.71336C33.465 9.82024 33.0732 9.9568 32.7288 10.123C32.5982 10.028 32.4854 9.90336 32.3904 9.74899C32.3072 9.58274 32.2657 9.40461 32.2657 9.21461C32.2657 8.97711 32.3191 8.78711 32.426 8.64461C32.5447 8.49024 32.7288 8.35367 32.9782 8.23492C33.3225 8.09242 33.7144 7.98555 34.1538 7.9143C34.5932 7.84305 35.0385 7.80742 35.4897 7.80742Z" fill="white"/>
<path d="M41.572 16.4999C41.4295 16.3693 41.3167 16.2209 41.2336 16.0546C41.1504 15.8884 41.1089 15.7043 41.1089 15.5024C41.1089 15.3005 41.1504 15.1165 41.2336 14.9502C41.3286 14.7721 41.4414 14.5999 41.572 14.4337L45.3483 9.83805H41.4295C41.3701 9.74305 41.3167 9.61836 41.2692 9.46399C41.2217 9.29774 41.1979 9.12555 41.1979 8.94742C41.1979 8.63867 41.2692 8.41305 41.4117 8.27055C41.5542 8.12805 41.7442 8.0568 41.9817 8.0568H47.6461C47.7886 8.18742 47.9014 8.33586 47.9845 8.50211C48.0676 8.66836 48.1092 8.85836 48.1092 9.07211C48.1092 9.26211 48.0617 9.44617 47.9667 9.6243C47.8836 9.79055 47.7767 9.9568 47.6461 10.123L43.8876 14.7365H48.0379C48.0973 14.8315 48.1508 14.9562 48.1983 15.1105C48.2458 15.2649 48.2695 15.4312 48.2695 15.6093C48.2695 15.918 48.1983 16.1437 48.0558 16.2862C47.9133 16.4287 47.7233 16.4999 47.4858 16.4999H41.572Z" fill="white"/>
<path d="M54.2475 7.80742C54.8175 7.80742 55.346 7.90242 55.8329 8.09242C56.3316 8.27055 56.765 8.54961 57.1332 8.92961C57.5013 9.29774 57.7863 9.76086 57.9882 10.319C58.2019 10.8652 58.3088 11.5124 58.3088 12.2605C58.3088 13.0087 58.2019 13.6618 57.9882 14.2199C57.7744 14.778 57.4716 15.2471 57.0797 15.6271C56.6879 16.0071 56.2129 16.2921 55.6547 16.4821C55.1085 16.6721 54.4969 16.7671 53.82 16.7671C53.1313 16.7671 52.5316 16.684 52.021 16.5177C51.5104 16.3515 51.0888 16.1555 50.7563 15.9299C50.5069 15.7637 50.3229 15.5855 50.2041 15.3955C50.0854 15.1937 50.026 14.9562 50.026 14.683V4.9218C50.121 4.88617 50.2575 4.85648 50.4357 4.83274C50.6257 4.79711 50.8335 4.7793 51.0591 4.7793C51.4747 4.7793 51.7835 4.85648 51.9854 5.01086C52.1872 5.16523 52.2882 5.43836 52.2882 5.83024V8.27055C52.5375 8.13992 52.8225 8.03305 53.1432 7.94992C53.4757 7.85492 53.8438 7.80742 54.2475 7.80742ZM53.8557 9.58867C53.535 9.58867 53.2382 9.64211 52.965 9.74899C52.7038 9.85586 52.4722 9.97461 52.2704 10.1052V14.5584C52.4247 14.6534 52.6325 14.7484 52.8938 14.8434C53.155 14.9265 53.4579 14.968 53.8022 14.968C54.4672 14.968 55.0016 14.7484 55.4054 14.309C55.8091 13.8577 56.011 13.1749 56.011 12.2605C56.011 11.3343 55.8091 10.6574 55.4054 10.2299C55.0135 9.80242 54.4969 9.58867 53.8557 9.58867Z" fill="white"/>
<path d="M68.4675 12.2784C68.4675 12.9671 68.3606 13.5905 68.1469 14.1487C67.945 14.6949 67.654 15.164 67.274 15.5559C66.894 15.9477 66.4369 16.2505 65.9025 16.4643C65.3681 16.6662 64.7684 16.7671 64.1034 16.7671C63.4384 16.7671 62.8387 16.6662 62.3044 16.4643C61.77 16.2505 61.3128 15.9537 60.9328 15.5737C60.5528 15.1818 60.2559 14.7127 60.0422 14.1665C59.8403 13.6084 59.7394 12.979 59.7394 12.2784C59.7394 11.5896 59.8403 10.9721 60.0422 10.4259C60.2559 9.86774 60.5528 9.39867 60.9328 9.01867C61.3247 8.6268 61.7878 8.32992 62.3222 8.12805C62.8565 7.9143 63.4503 7.80742 64.1034 7.80742C64.7565 7.80742 65.3503 7.9143 65.8847 8.12805C66.419 8.32992 66.8762 8.6268 67.2562 9.01867C67.6481 9.41055 67.945 9.88555 68.1469 10.4437C68.3606 10.9899 68.4675 11.6015 68.4675 12.2784ZM64.1034 9.58867C63.4622 9.58867 62.9575 9.82617 62.5894 10.3012C62.2212 10.7643 62.0372 11.4234 62.0372 12.2784C62.0372 13.1452 62.2153 13.8102 62.5715 14.2734C62.9397 14.7365 63.4503 14.968 64.1034 14.968C64.7565 14.968 65.2612 14.7365 65.6175 14.2734C65.9856 13.7984 66.1697 13.1334 66.1697 12.2784C66.1697 11.4234 65.9856 10.7643 65.6175 10.3012C65.2494 9.82617 64.7447 9.58867 64.1034 9.58867Z" fill="white"/>
<path d="M72.5699 16.4821C72.463 16.5059 72.3206 16.5355 72.1424 16.5712C71.9643 16.6068 71.7624 16.6246 71.5368 16.6246C71.1212 16.6246 70.8124 16.5474 70.6106 16.393C70.4087 16.2387 70.3077 15.9655 70.3077 15.5737V9.92711C70.3077 9.61836 70.379 9.35711 70.5215 9.14336C70.664 8.92961 70.8718 8.73961 71.1449 8.57336C71.5131 8.34774 71.9643 8.16367 72.4987 8.02117C73.0449 7.87867 73.6327 7.80742 74.2621 7.80742C75.3902 7.80742 75.9543 8.15774 75.9543 8.85836C75.9543 9.02461 75.9246 9.18492 75.8652 9.3393C75.8177 9.4818 75.7643 9.60055 75.7049 9.69555C75.4318 9.63617 75.0934 9.60649 74.6896 9.60649C74.274 9.60649 73.8821 9.65399 73.514 9.74899C73.1459 9.84399 72.8312 9.96274 72.5699 10.1052V16.4821Z" fill="white"/>
<path d="M85.445 12.2784C85.445 12.9671 85.3382 13.5905 85.1244 14.1487C84.9225 14.6949 84.6316 15.164 84.2516 15.5559C83.8716 15.9477 83.4144 16.2505 82.88 16.4643C82.3457 16.6662 81.746 16.7671 81.081 16.7671C80.416 16.7671 79.8163 16.6662 79.2819 16.4643C78.7475 16.2505 78.2903 15.9537 77.9103 15.5737C77.5303 15.1818 77.2335 14.7127 77.0197 14.1665C76.8178 13.6084 76.7169 12.979 76.7169 12.2784C76.7169 11.5896 76.8178 10.9721 77.0197 10.4259C77.2335 9.86774 77.5303 9.39867 77.9103 9.01867C78.3022 8.6268 78.7653 8.32992 79.2997 8.12805C79.8341 7.9143 80.4278 7.80742 81.081 7.80742C81.7341 7.80742 82.3278 7.9143 82.8622 8.12805C83.3966 8.32992 83.8538 8.6268 84.2338 9.01867C84.6257 9.41055 84.9225 9.88555 85.1244 10.4437C85.3382 10.9899 85.445 11.6015 85.445 12.2784ZM81.081 9.58867C80.4397 9.58867 79.935 9.82617 79.5669 10.3012C79.1988 10.7643 79.0147 11.4234 79.0147 12.2784C79.0147 13.1452 79.1928 13.8102 79.5491 14.2734C79.9172 14.7365 80.4278 14.968 81.081 14.968C81.7341 14.968 82.2388 14.7365 82.595 14.2734C82.9632 13.7984 83.1472 13.1334 83.1472 12.2784C83.1472 11.4234 82.9632 10.7643 82.595 10.3012C82.2269 9.82617 81.7222 9.58867 81.081 9.58867Z" fill="white"/>
<defs>
<clipPath id="clip0_1_11">
<rect width="20.0746" height="23.0896" fill="white" transform="translate(0 0.480469)"/>
</clipPath>
</defs>
</svg>
