<svg width="31" height="30" viewBox="0 0 31 30" fill="none" xmlns="http://www.w3.org/2000/svg">
<g clip-path="url(#clip0_2276_3719)">
<path d="M29.48 4.59221L24.2591 2.41715C23.6864 2.17862 23.0296 2.17868 22.457 2.41721L19.9503 3.46129C19.7262 3.55469 19.6203 3.81192 19.7136 4.03598C19.8069 4.26004 20.0642 4.3661 20.2883 4.2727L22.7949 3.22856C23.1526 3.0795 23.5632 3.07944 23.9212 3.2285L29.1417 5.40344C29.6495 5.61526 29.9777 6.09157 29.9777 6.61674V25.4107C29.9777 26.1415 29.35 26.7361 28.5785 26.7361H27.866C27.6232 26.7361 27.4265 26.9328 27.4265 27.1755C27.4265 27.4183 27.6232 27.615 27.866 27.615H28.5785C29.8346 27.615 30.8566 26.6261 30.8566 25.4107V6.61674C30.8566 5.73573 30.3163 4.94108 29.48 4.59221Z" fill="#2E71F0"/>
<path d="M25.9494 26.7359H18.5654C18.8695 26.3903 19.0359 25.9519 19.0359 25.4879C19.0359 25.0248 18.8683 24.6004 18.5909 24.2713C18.7658 24.1821 18.9278 24.0653 19.0707 23.9224C19.4277 23.5654 19.6242 23.0907 19.6242 22.5857C19.6242 22.1043 19.443 21.6646 19.1457 21.3305C19.2929 21.2471 19.43 21.1438 19.5529 21.0208C19.9098 20.6639 20.1064 20.1893 20.1064 19.6841C20.1064 19.2041 19.9263 18.7656 19.6307 18.4318C19.7804 18.3477 19.9198 18.2431 20.0449 18.1183C20.4016 17.7608 20.598 17.2863 20.598 16.7819C20.598 15.7393 19.75 14.8911 18.7077 14.8911H16.7372V6.6165C16.7372 6.09127 17.0654 5.61496 17.5729 5.40326L18.3722 5.07045C18.5963 4.97717 18.7022 4.71994 18.609 4.49582C18.5156 4.27176 18.2584 4.16559 18.0343 4.25904L17.2348 4.59197C16.3986 4.94078 15.8583 5.73549 15.8583 6.6165V14.8912H14.0221C14.6336 12.959 14.5815 10.9425 13.868 8.60207C13.7596 8.24764 13.5439 7.94406 13.2442 7.72416C12.9463 7.50561 12.5932 7.39 12.2231 7.39C11.7462 7.39 11.3029 7.58043 10.9745 7.92619C10.6463 8.2719 10.4792 8.72447 10.5039 9.20049C10.6413 11.8429 9.42246 12.7524 7.73549 14.0113C7.18008 14.4257 6.57305 14.879 5.97645 15.4349V14.8589C5.97645 14.6161 5.77975 14.4194 5.53699 14.4194H1.29492C1.05217 14.4194 0.855469 14.6161 0.855469 14.8589V27.3224C0.855469 27.5651 1.05217 27.7618 1.29492 27.7618H5.53711C5.77986 27.7618 5.97656 27.5651 5.97656 27.3224V26.2168C6.81123 26.2962 7.42084 26.4626 8.01311 26.9165C8.40193 27.2145 8.88123 27.3786 9.3627 27.3786H17.1129C17.4296 27.533 17.7806 27.6148 18.1365 27.6148H25.9494C26.1921 27.6148 26.3888 27.4181 26.3888 27.1753C26.3888 26.9325 26.1921 26.7359 25.9494 26.7359ZM8.54777 26.2189C7.71914 25.5839 6.83355 25.4075 5.97656 25.3335V20.2021C5.97656 19.9594 5.77986 19.7627 5.53711 19.7627C5.29436 19.7627 5.09766 19.9594 5.09766 20.2021V26.883H1.73438V15.2984H5.09766V18.2873C5.09766 18.5301 5.29436 18.7268 5.53711 18.7268C5.77986 18.7268 5.97656 18.5301 5.97656 18.2873V16.6833C6.71168 15.8721 7.49883 15.2847 8.26125 14.7157C9.94928 13.4562 11.5436 12.2663 11.3818 9.1549C11.3697 8.92199 11.4514 8.70057 11.6121 8.53141C11.7728 8.36213 11.9898 8.26897 12.2232 8.26897C12.4051 8.26897 12.5783 8.32563 12.7244 8.43285C12.8702 8.53984 12.9751 8.68727 13.0276 8.85889C13.7543 11.2428 13.7429 13.2484 12.9918 15.1708C12.9389 15.3061 12.9563 15.4587 13.0382 15.5786C13.12 15.6985 13.2558 15.7703 13.401 15.7703H18.7078C19.2655 15.7703 19.7192 16.2242 19.7192 16.7822C19.7192 17.052 19.6139 17.3061 19.4234 17.4971C19.2318 17.6882 18.9778 17.7935 18.7078 17.7935H16.9025C16.6598 17.7935 16.4631 17.9902 16.4631 18.233C16.4631 18.4757 16.6598 18.6724 16.9025 18.6724H18.2162C18.7738 18.6724 19.2275 19.1263 19.2275 19.6844C19.2275 19.9547 19.1224 20.2087 18.9314 20.3996C18.7405 20.5906 18.4865 20.6957 18.2162 20.6957H16.9025C16.6598 20.6957 16.4631 20.8924 16.4631 21.1352C16.4631 21.3779 16.6598 21.5746 16.9025 21.5746H17.7339C18.2916 21.5746 18.7453 22.0283 18.7453 22.5859C18.7453 22.8562 18.6401 23.1102 18.4492 23.3012C18.2579 23.4926 18.0038 23.5979 17.7339 23.5979H17.1456H16.4203C16.1775 23.5979 15.9808 23.7946 15.9808 24.0373C15.9808 24.2801 16.1775 24.4768 16.4203 24.4768H17.1456C17.7033 24.4768 18.157 24.9305 18.157 25.4881C18.157 25.7583 18.0517 26.0126 17.8613 26.2035C17.6828 26.3816 17.4009 26.4952 17.1899 26.499C17.1753 26.4992 9.3627 26.5 9.3627 26.5C9.07348 26.4997 8.78402 26.4 8.54777 26.2189Z" fill="#2E71F0"/>
<path d="M24.9432 6.81242C24.9432 5.88898 24.1919 5.1377 23.2685 5.1377C22.345 5.1377 21.5938 5.88898 21.5938 6.81242C21.5938 7.73586 22.345 8.48715 23.2685 8.48715C24.1919 8.48715 24.9432 7.73586 24.9432 6.81242ZM22.4727 6.81242C22.4727 6.37361 22.8297 6.0166 23.2685 6.0166C23.7073 6.0166 24.0643 6.37361 24.0643 6.81242C24.0643 7.25123 23.7073 7.60824 23.2685 7.60824C22.8297 7.60824 22.4727 7.25129 22.4727 6.81242Z" fill="#2E71F0"/>
<path d="M21.6321 21.346C21.3412 21.346 21.1055 21.5817 21.1055 21.8726C21.1055 22.1635 21.3412 22.3992 21.6321 22.3992H22.4925V23.4734C22.4925 23.7643 22.7282 24 23.0191 24C23.31 24 23.5457 23.7643 23.5457 23.4734V22.3992H26.2555C26.5464 22.3992 26.7821 22.1635 26.7821 21.8726C26.7821 21.5817 26.5464 21.346 26.2555 21.346H23.5457V20.3273H26.2555C27.3106 20.3273 28.1691 19.4688 28.1691 18.4136C28.1691 17.3585 27.3106 16.5 26.2555 16.5H23.0191C22.7282 16.5 22.4925 16.7357 22.4925 17.0266V19.2741H21.6321C21.3412 19.2741 21.1055 19.5098 21.1055 19.8007C21.1055 20.0916 21.3412 20.3273 21.6321 20.3273H22.4925V21.346H21.6321ZM23.5457 17.5533H26.2555C26.73 17.5533 27.1159 17.9392 27.1159 18.4137C27.1159 18.8882 26.73 19.2742 26.2555 19.2742H23.5457V17.5533Z" fill="#2E71F0"/>
</g>
<defs>
<clipPath id="clip0_2276_3719">
<rect width="30" height="30" fill="white" transform="translate(0.855469)"/>
</clipPath>
</defs>
</svg>
