<svg width="10" height="11" viewBox="0 0 10 11" fill="none" xmlns="http://www.w3.org/2000/svg">
<path d="M7.77939 10.5001C7.69943 10.5004 7.62056 10.4816 7.54939 10.4451L4.99939 9.1101L2.44939 10.4451C2.36659 10.4886 2.27323 10.5081 2.17993 10.5012C2.08663 10.4943 1.99713 10.4614 1.92161 10.4062C1.84608 10.351 1.78756 10.2757 1.7527 10.1889C1.71784 10.1021 1.70803 10.0072 1.72439 9.9151L2.22439 7.1001L0.164393 5.1001C0.100122 5.03596 0.0545288 4.95554 0.0325069 4.86745C0.010485 4.77936 0.0128655 4.68694 0.039393 4.6001C0.068373 4.51124 0.121681 4.43228 0.193268 4.37218C0.264855 4.31208 0.351854 4.27325 0.444393 4.2601L3.29439 3.8451L4.54939 1.2801C4.59034 1.19557 4.65426 1.12427 4.73385 1.07439C4.81344 1.0245 4.90546 0.998047 4.99939 0.998047C5.09332 0.998047 5.18535 1.0245 5.26494 1.07439C5.34452 1.12427 5.40845 1.19557 5.44939 1.2801L6.71939 3.8401L9.56939 4.2551C9.66193 4.26825 9.74893 4.30708 9.82052 4.36718C9.89211 4.42728 9.94541 4.50624 9.97439 4.5951C10.0009 4.68194 10.0033 4.77436 9.98128 4.86245C9.95926 4.95054 9.91366 5.03096 9.84939 5.0951L7.78939 7.0951L8.28939 9.9101C8.30724 10.0038 8.2979 10.1007 8.26246 10.1893C8.22702 10.2779 8.16697 10.3545 8.08939 10.4101C7.99885 10.4735 7.88983 10.5052 7.77939 10.5001Z" fill="#FDC93E"/>
</svg>
